<svg xmlns="http://www.w3.org/2000/svg" viewBox="0 0 760 2478.9" width="760" height="2478.9">
<style>text { font-family: "Geist", "Helvetica Neue", Arial, sans-serif; }</style>
<rect x="0" y="0" width="760" height="2478.9" fill="#252525"/>
<text x="16" y="28" font-size="19" fill="#f7f7f7" font-weight="600">Three Cases Converging</text>
<text x="16" y="46" font-size="12" fill="#b8b8b8">A funnel opens into three parallel case studies of relational societies, which converge on the conclusion that</text>
<text x="16" y="61.6" font-size="12" fill="#b8b8b8">work supplies impersonal respect that relational life cannot.</text>
<g transform="translate(0 97.2)">
<line x1="16" y1="-14" x2="744" y2="-14" stroke="#3f3f3f"/>
<text x="16" y="14" font-size="15" fill="#f7f7f7" font-weight="600">After Work, We'll Have Each Other</text>
<text x="16" y="31" font-size="11.5" fill="#b8b8b8">The thesis (relationships replace work) funnels into three historical case studies of relational living, which converge</text>
<text x="16" y="45.95" font-size="11.5" fill="#b8b8b8">on a single conclusion about what work really gives us.</text>
<text x="744" y="14" font-size="10" fill="#8f8f8f" text-anchor="end" letter-spacing="0.06em">OVERVIEW</text>
<g transform="translate(0 65.9)"><rect x="24" y="150" width="220" height="260" rx="8" fill="rgba(232,112,58,0.13)" stroke="rgba(232,112,58,0.62)" stroke-width="1.8"/>
<rect x="270" y="150" width="220" height="260" rx="8" fill="rgba(47,191,149,0.13)" stroke="rgba(47,191,149,0.62)" stroke-width="1.8"/>
<rect x="516" y="150" width="220" height="260" rx="8" fill="rgba(240,228,66,0.07)" stroke="rgba(240,228,66,0.24)" stroke-width="1"/>
<path d="M380 110 C380 146 135 154 135 190" fill="none" stroke="rgba(201,201,201,0.62)" stroke-width="1.5" stroke-linecap="round" stroke-linejoin="round"/>
<polygon points="135,190 131.5,180 138.5,180" fill="rgba(201,201,201,0.8)" stroke="none"/>
<path d="M380 110 C380 146 381 154 381 190" fill="none" stroke="rgba(201,201,201,0.62)" stroke-width="1.5" stroke-linecap="round" stroke-linejoin="round"/>
<polygon points="381,190 377.5,180 384.5,180" fill="rgba(201,201,201,0.8)" stroke="none"/>
<path d="M380 110 C380 146 627 154 627 190" fill="none" stroke="rgba(201,201,201,0.62)" stroke-width="1.5" stroke-linecap="round" stroke-linejoin="round"/>
<polygon points="627,190 623.5,180 630.5,180" fill="rgba(201,201,201,0.8)" stroke="none"/>
<path d="M135 440 C135 467 380 473 380 500" fill="none" stroke="rgba(201,201,201,0.62)" stroke-width="1.5" stroke-linecap="round" stroke-linejoin="round"/>
<polygon points="380,500 376.5,490 383.5,490" fill="rgba(201,201,201,0.8)" stroke="none"/>
<path d="M381 440 C381 467 380 473 380 500" fill="none" stroke="rgba(201,201,201,0.62)" stroke-width="1.5" stroke-linecap="round" stroke-linejoin="round"/>
<polygon points="380,500 376.5,490 383.5,490" fill="rgba(201,201,201,0.8)" stroke="none"/>
<path d="M627 440 C627 467 380 473 380 500" fill="none" stroke="rgba(201,201,201,0.62)" stroke-width="1.5" stroke-linecap="round" stroke-linejoin="round"/>
<polygon points="380,500 376.5,490 383.5,490" fill="rgba(201,201,201,0.8)" stroke="none"/>
<path d="M380 590 L380 630" fill="none" stroke="rgba(201,201,201,0.62)" stroke-width="1.5" stroke-linecap="round" stroke-linejoin="round"/>
<polygon points="380,630 376.5,620 383.5,620" fill="rgba(201,201,201,0.8)" stroke="none"/>
<g>
<title>If AI ends work, relationships become status and meaning — The relational-sector thesis: when machines do everything else, who you know determines your worth. — → spya-eq7rkm</title>
<ellipse cx="380" cy="70" rx="150" ry="40" fill="rgba(201,201,201,0.16)" stroke="rgba(201,201,201,0.62)" stroke-width="1.2"/>
<text x="380" y="65.5" font-size="15" text-anchor="middle" fill="#f7f7f7">If AI ends work, relationships</text>
<text x="380" y="84.25" font-size="15" text-anchor="middle" fill="#f7f7f7">become status and meaning</text>
</g>
<g>
<title>Versailles court life: petty status obsession — → spya-y827zc</title>
<rect x="40" y="190" width="190" height="70" rx="4" fill="rgba(232,112,58,0.16)" stroke="rgba(232,112,58,0.62)" stroke-width="1.2"/>
<text x="135" y="221.4" font-size="12" text-anchor="middle" fill="#f7f7f7">Versailles court life: petty</text>
<text x="135" y="236.4" font-size="12" text-anchor="middle" fill="#f7f7f7">status obsession</text>
</g>
<g>
<title>Gossip and honor over ideas — → spya-bm2xyv</title>
<rect x="40" y="280" width="190" height="70" rx="4" fill="rgba(232,112,58,0.16)" stroke="rgba(232,112,58,0.62)" stroke-width="1.2"/>
<text x="135" y="318.9" font-size="12" text-anchor="middle" fill="#f7f7f7">Gossip and honor over ideas</text>
</g>
<g>
<title>Apes, not fixed regression — → spya-cz0cgg</title>
<rect x="40" y="370" width="190" height="70" rx="4" fill="rgba(232,112,58,0.16)" stroke="rgba(232,112,58,0.62)" stroke-width="1.2"/>
<text x="135" y="408.9" font-size="12" text-anchor="middle" fill="#f7f7f7">Apes, not fixed regression</text>
</g>
<g>
<title>Ostrander's wives: no job, no ambition — → spya-uum3xk</title>
<rect x="286" y="190" width="190" height="70" rx="4" fill="rgba(47,191,149,0.16)" stroke="rgba(47,191,149,0.62)" stroke-width="1.2"/>
<text x="381" y="221.4" font-size="12" text-anchor="middle" fill="#f7f7f7">Ostrander's wives: no job,</text>
<text x="381" y="236.4" font-size="12" text-anchor="middle" fill="#f7f7f7">no ambition</text>
</g>
<g>
<title>Charity as 'illusion of usefulness' — → spya-mdncme</title>
<rect x="286" y="280" width="190" height="70" rx="4" fill="rgba(47,191,149,0.16)" stroke="rgba(47,191,149,0.62)" stroke-width="1.2"/>
<text x="381" y="311.4" font-size="12" text-anchor="middle" fill="#f7f7f7">Charity as 'illusion of</text>
<text x="381" y="326.4" font-size="12" text-anchor="middle" fill="#f7f7f7">usefulness'</text>
</g>
<g>
<title>Comfortable but narrow world — → spya-r7r7ap</title>
<rect x="286" y="370" width="190" height="70" rx="4" fill="rgba(47,191,149,0.16)" stroke="rgba(47,191,149,0.62)" stroke-width="1.2"/>
<text x="381" y="408.9" font-size="12" text-anchor="middle" fill="#f7f7f7">Comfortable but narrow world</text>
</g>
<g>
<title>West End peer groups over jobs — → spya-y02mr5</title>
<rect x="532" y="190" width="190" height="70" rx="4" fill="rgba(240,228,66,0.16)" stroke="rgba(240,228,66,0.62)" stroke-width="1.2"/>
<text x="627" y="221.4" font-size="12" text-anchor="middle" fill="#f7f7f7">West End peer groups over</text>
<text x="627" y="236.4" font-size="12" text-anchor="middle" fill="#f7f7f7">jobs</text>
</g>
<g>
<title>Conformity, exclusion of outsiders — → spya-j337dx</title>
<rect x="532" y="280" width="190" height="70" rx="4" fill="rgba(240,228,66,0.16)" stroke="rgba(240,228,66,0.62)" stroke-width="1.2"/>
<text x="627" y="311.4" font-size="12" text-anchor="middle" fill="#f7f7f7">Conformity, exclusion of</text>
<text x="627" y="326.4" font-size="12" text-anchor="middle" fill="#f7f7f7">outsiders</text>
</g>
<g>
<title>Amoral familism fades with opportunity — → spya-dma27v</title>
<rect x="532" y="370" width="190" height="70" rx="4" fill="rgba(240,228,66,0.16)" stroke="rgba(240,228,66,0.62)" stroke-width="1.2"/>
<text x="627" y="401.4" font-size="12" text-anchor="middle" fill="#f7f7f7">Amoral familism fades with</text>
<text x="627" y="416.4" font-size="12" text-anchor="middle" fill="#f7f7f7">opportunity</text>
</g>
<g>
<title>Work gives impersonal respect; relational dignity is clannish — Smith/Hume: markets free friendship — → spya-s2680p</title>
<rect x="200" y="500" width="360" height="90" rx="4" fill="rgba(201,201,201,0.16)" stroke="rgba(201,201,201,0.62)" stroke-width="1.2"/>
<text x="380" y="529.12" font-size="20" text-anchor="middle" fill="#f7f7f7">Work gives impersonal respect;</text>
<text x="380" y="554.12" font-size="20" text-anchor="middle" fill="#f7f7f7">relational dignity is clannish</text>
<text x="380" y="581.4" font-size="15.2" text-anchor="middle" fill="#8f8f8f">Smith/Hume: markets free friendship</text>
</g>
<g>
<title>Surveys, Strauss, Terkel: workers value competence and respect — → spya-t9qyhk</title>
<rect x="200" y="630" width="360" height="90" rx="4" fill="rgba(201,201,201,0.16)" stroke="rgba(201,201,201,0.62)" stroke-width="1.2"/>
<text x="380" y="671.4" font-size="12" text-anchor="middle" fill="#f7f7f7">Surveys, Strauss, Terkel: workers value competence and</text>
<text x="380" y="686.4" font-size="12" text-anchor="middle" fill="#f7f7f7">respect</text>
</g>
<text x="526" y="165" font-size="11" text-anchor="start" fill="rgba(240,228,66,0.95)" font-weight="500" letter-spacing="0.07em">WORKING CLASS</text></g>
</g>
<g transform="translate(0 1091.1)">
<line x1="16" y1="-14" x2="744" y2="-14" stroke="#3f3f3f"/>
<text x="16" y="14" font-size="15" fill="#f7f7f7" font-weight="600">Power and sex among apes</text>
<text x="16" y="31" font-size="11.5" fill="#b8b8b8">Aristocrats freed from work organized life around precedence, gossip, and honor — a civilizing restraint on primate</text>
<text x="16" y="45.95" font-size="11.5" fill="#b8b8b8">instinct, not its inevitable form.</text>
<text x="744" y="14" font-size="10" fill="#8f8f8f" text-anchor="end" letter-spacing="0.06em">INSIDE-ARISTOCRATS</text>
<g transform="translate(0 65.9)"><path d="M380 100 L380 140" fill="none" stroke="rgba(201,201,201,0.62)" stroke-width="1.5" stroke-linecap="round" stroke-linejoin="round"/>
<polygon points="380,140 376.5,130 383.5,130" fill="rgba(201,201,201,0.8)" stroke="none"/>
<path d="M380 220 L380 250" fill="none" stroke="rgba(201,201,201,0.62)" stroke-width="1.5" stroke-linecap="round" stroke-linejoin="round"/>
<polygon points="380,250 376.5,240 383.5,240" fill="rgba(201,201,201,0.8)" stroke="none"/>
<path d="M380 330 L380 360" fill="none" stroke="rgba(201,201,201,0.62)" stroke-width="1.5" stroke-linecap="round" stroke-linejoin="round"/>
<polygon points="380,360 376.5,350 383.5,350" fill="rgba(201,201,201,0.8)" stroke="none"/>
<path d="M380 440 L380 470" fill="none" stroke="rgba(201,201,201,0.62)" stroke-width="1.5" stroke-linecap="round" stroke-linejoin="round"/>
<polygon points="380,470 376.5,460 383.5,460" fill="rgba(201,201,201,0.8)" stroke="none"/>
<g>
<title>Versailles: wealthiest, most brilliant court — → spya-gs52t3</title>
<ellipse cx="380" cy="65" rx="120" ry="35" fill="rgba(201,201,201,0.16)" stroke="rgba(201,201,201,0.62)" stroke-width="1.2"/>
<text x="380" y="60.5" font-size="15" text-anchor="middle" fill="#f7f7f7">Versailles: wealthiest,</text>
<text x="380" y="79.25" font-size="15" text-anchor="middle" fill="#f7f7f7">most brilliant court</text>
</g>
<g>
<title>Saint-Simon obsessed with heraldic precedence, not culture — → spya-x4w0zk</title>
<rect x="260" y="140" width="240" height="80" rx="4" fill="rgba(201,201,201,0.16)" stroke="rgba(201,201,201,0.62)" stroke-width="1.2"/>
<text x="380" y="176.4" font-size="12" text-anchor="middle" fill="#f7f7f7">Saint-Simon obsessed with heraldic</text>
<text x="380" y="191.4" font-size="12" text-anchor="middle" fill="#f7f7f7">precedence, not culture</text>
</g>
<g>
<title>Salons: political gossip, not philosophy — → spya-k0yet6</title>
<rect x="260" y="250" width="240" height="80" rx="4" fill="rgba(201,201,201,0.16)" stroke="rgba(201,201,201,0.62)" stroke-width="1.2"/>
<text x="380" y="286.4" font-size="12" text-anchor="middle" fill="#f7f7f7">Salons: political gossip, not</text>
<text x="380" y="301.4" font-size="12" text-anchor="middle" fill="#f7f7f7">philosophy</text>
</g>
<g>
<title>Catherine the Great's court: same jockeying for favor — → spya-f90g2h</title>
<rect x="260" y="360" width="240" height="80" rx="4" fill="rgba(201,201,201,0.16)" stroke="rgba(201,201,201,0.62)" stroke-width="1.2"/>
<text x="380" y="396.4" font-size="12" text-anchor="middle" fill="#f7f7f7">Catherine the Great's court: same</text>
<text x="380" y="411.4" font-size="12" text-anchor="middle" fill="#f7f7f7">jockeying for favor</text>
</g>
<g>
<title>Elias: etiquette as civilizing restraint, not inevitable primate regression — → spya-k26ath</title>
<polygon points="305,470 455,470 500,515 455,560 305,560 260,515" fill="rgba(201,201,201,0.16)" stroke="rgba(201,201,201,0.62)" stroke-width="1.2"/>
<text x="380" y="503.9" font-size="12" text-anchor="middle" fill="#f7f7f7">Elias: etiquette as civilizing</text>
<text x="380" y="518.9" font-size="12" text-anchor="middle" fill="#f7f7f7">restraint, not inevitable</text>
<text x="380" y="533.9" font-size="12" text-anchor="middle" fill="#f7f7f7">primate regression</text>
</g></g>
</g>
<g transform="translate(0 1785)">
<line x1="16" y1="-14" x2="744" y2="-14" stroke="#3f3f3f"/>
<text x="16" y="14" font-size="15" fill="#f7f7f7" font-weight="600">Ladies who lunch</text>
<text x="16" y="31" font-size="11.5" fill="#b8b8b8">Ostrander's wives show a modern relational world: comfortable, status-bound, and valuing the appearance of usefulness</text>
<text x="16" y="45.95" font-size="11.5" fill="#b8b8b8">over real results.</text>
<text x="744" y="14" font-size="10" fill="#8f8f8f" text-anchor="end" letter-spacing="0.06em">INSIDE-LADIES</text>
<g transform="translate(0 65.9)"><path d="M390 100 L390 140" fill="none" stroke="rgba(201,201,201,0.62)" stroke-width="1.5" stroke-linecap="round" stroke-linejoin="round"/>
<polygon points="390,140 386.5,130 393.5,130" fill="rgba(201,201,201,0.8)" stroke="none"/>
<path d="M390 220 L390 250" fill="none" stroke="rgba(201,201,201,0.62)" stroke-width="1.5" stroke-linecap="round" stroke-linejoin="round"/>
<polygon points="390,250 386.5,240 393.5,240" fill="rgba(201,201,201,0.8)" stroke="none"/>
<path d="M390 330 L390 360" fill="none" stroke="rgba(201,201,201,0.62)" stroke-width="1.5" stroke-linecap="round" stroke-linejoin="round"/>
<polygon points="390,360 386.5,350 393.5,350" fill="rgba(201,201,201,0.8)" stroke="none"/>
<path d="M390 440 L390 470" fill="none" stroke="rgba(201,201,201,0.62)" stroke-width="1.5" stroke-linecap="round" stroke-linejoin="round"/>
<polygon points="390,470 386.5,460 393.5,460" fill="rgba(201,201,201,0.8)" stroke="none"/>
<g>
<title>No job expected, none felt obligatory — → spya-pjnh37</title>
<ellipse cx="390" cy="65" rx="130" ry="35" fill="rgba(201,201,201,0.16)" stroke="rgba(201,201,201,0.62)" stroke-width="1.2"/>
<text x="390" y="60.5" font-size="15" text-anchor="middle" fill="#f7f7f7">No job expected, none felt</text>
<text x="390" y="79.25" font-size="15" text-anchor="middle" fill="#f7f7f7">obligatory</text>
</g>
<g>
<title>Life organized around keeping 'congenial' social network in order — → spya-a94czy</title>
<rect x="260" y="140" width="260" height="80" rx="4" fill="rgba(201,201,201,0.16)" stroke="rgba(201,201,201,0.62)" stroke-width="1.2"/>
<text x="390" y="176.4" font-size="12" text-anchor="middle" fill="#f7f7f7">Life organized around keeping</text>
<text x="390" y="191.4" font-size="12" text-anchor="middle" fill="#f7f7f7">'congenial' social network in order</text>
</g>
<g>
<title>Volunteering = exclusive fundraising among the rich — → spya-xn6rzj</title>
<rect x="260" y="250" width="260" height="80" rx="4" fill="rgba(201,201,201,0.16)" stroke="rgba(201,201,201,0.62)" stroke-width="1.2"/>
<text x="390" y="286.4" font-size="12" text-anchor="middle" fill="#f7f7f7">Volunteering = exclusive fundraising</text>
<text x="390" y="301.4" font-size="12" text-anchor="middle" fill="#f7f7f7">among the rich</text>
</g>
<g>
<title>'It's that illusion of being useful that's satisfying' — → spya-mc24jb</title>
<rect x="260" y="360" width="260" height="80" rx="4" fill="rgba(201,201,201,0.16)" stroke="rgba(201,201,201,0.62)" stroke-width="1.2"/>
<text x="390" y="396.4" font-size="12" text-anchor="middle" fill="#f7f7f7">'It's that illusion of being useful</text>
<text x="390" y="411.4" font-size="12" text-anchor="middle" fill="#f7f7f7">that's satisfying'</text>
</g>
<g>
<title>Dignity from defending inherited class position, not achievement — → spya-j3vvp7</title>
<polygon points="305,470 475,470 520,515 475,560 305,560 260,515" fill="rgba(201,201,201,0.16)" stroke="rgba(201,201,201,0.62)" stroke-width="1.2"/>
<text x="390" y="511.4" font-size="12" text-anchor="middle" fill="#f7f7f7">Dignity from defending inherited</text>
<text x="390" y="526.4" font-size="12" text-anchor="middle" fill="#f7f7f7">class position, not achievement</text>
</g></g>
</g>
</svg>