<svg xmlns="http://www.w3.org/2000/svg" viewBox="0 0 760 3104.4" width="760" height="3104.4">
<style>text { font-family: "Geist", "Helvetica Neue", Arial, sans-serif; }</style>
<rect x="0" y="0" width="760" height="3104.4" fill="#252525"/>
<text x="16" y="28" font-size="19" fill="#f7f7f7" font-weight="600">Chain with two zooms</text>
<text x="16" y="46" font-size="12" fill="#b8b8b8">A chain running down the length of the article—from the failure of the classical wired-in-synapses model, through</text>
<text x="16" y="61.6" font-size="12" fill="#b8b8b8">oscillations and ephaptic coupling as a fix, into Spatial Computing theory, into wave-based analog computation,</text>
<text x="16" y="77.2" font-size="12" fill="#b8b8b8">and finally into consciousness and its rivals—with two dense stretches opened up as their own close-up scenes.</text>
<g transform="translate(0 112.80000000000001)">
<line x1="16" y1="-14" x2="744" y2="-14" stroke="#3f3f3f"/>
<text x="16" y="14" font-size="15" fill="#f7f7f7" font-weight="600">Overview</text>
<text x="16" y="31" font-size="11.5" fill="#b8b8b8">One argument unfolds top to bottom: synapses alone can't explain flexible thought, so oscillating waves take over as</text>
<text x="16" y="45.95" font-size="11.5" fill="#b8b8b8">the brain's real-time controller, and that control turns out to be a form of computation that also explains</text>
<text x="16" y="60.900000000000006" font-size="11.5" fill="#b8b8b8">consciousness.</text>
<text x="744" y="14" font-size="10" fill="#8f8f8f" text-anchor="end" letter-spacing="0.06em">OVERVIEW</text>
<g transform="translate(0 80.85)"><rect x="40" y="120" width="680" height="220" rx="8" fill="rgba(232,112,58,0.07)" stroke="rgba(232,112,58,0.24)" stroke-width="1"/>
<rect x="40" y="360" width="680" height="220" rx="8" fill="rgba(47,191,149,0.07)" stroke="rgba(47,191,149,0.24)" stroke-width="1"/>
<rect x="40" y="600" width="680" height="220" rx="8" fill="rgba(240,228,66,0.13)" stroke="rgba(240,228,66,0.62)" stroke-width="1.8"/>
<rect x="40" y="840" width="680" height="220" rx="8" fill="rgba(92,143,232,0.13)" stroke="rgba(92,143,232,0.62)" stroke-width="1.8"/>
<rect x="40" y="1080" width="680" height="200" rx="8" fill="rgba(222,143,188,0.07)" stroke="rgba(222,143,188,0.24)" stroke-width="1"/>
<path d="M380 100 L380 150" fill="none" stroke="rgba(201,201,201,0.62)" stroke-width="1.5" stroke-linecap="round" stroke-linejoin="round"/>
<polygon points="380,150 376.5,140 383.5,140" fill="rgba(201,201,201,0.8)" stroke="none"/>
<path d="M380 220 L380 250" fill="none" stroke="rgba(201,201,201,0.62)" stroke-width="1.5" stroke-linecap="round" stroke-linejoin="round"/>
<polygon points="380,250 376.5,240 383.5,240" fill="rgba(201,201,201,0.8)" stroke="none"/>
<path d="M380 320 L380 390" fill="none" stroke="rgba(201,201,201,0.62)" stroke-width="1.5" stroke-linecap="round" stroke-linejoin="round"/>
<polygon points="380,390 376.5,380 383.5,380" fill="rgba(201,201,201,0.8)" stroke="none"/>
<path d="M380 460 L380 490" fill="none" stroke="rgba(201,201,201,0.62)" stroke-width="1.5" stroke-linecap="round" stroke-linejoin="round"/>
<polygon points="380,490 376.5,480 383.5,480" fill="rgba(201,201,201,0.8)" stroke="none"/>
<path d="M380 560 L380 630" fill="none" stroke="rgba(201,201,201,0.62)" stroke-width="1.5" stroke-linecap="round" stroke-linejoin="round"/>
<polygon points="380,630 376.5,620 383.5,620" fill="rgba(201,201,201,0.8)" stroke="none"/>
<path d="M380 700 L380 730" fill="none" stroke="rgba(201,201,201,0.62)" stroke-width="1.5" stroke-linecap="round" stroke-linejoin="round"/>
<polygon points="380,730 376.5,720 383.5,720" fill="rgba(201,201,201,0.8)" stroke="none"/>
<path d="M380 800 L380 870" fill="none" stroke="rgba(201,201,201,0.62)" stroke-width="1.5" stroke-linecap="round" stroke-linejoin="round"/>
<polygon points="380,870 376.5,860 383.5,860" fill="rgba(201,201,201,0.8)" stroke="none"/>
<path d="M380 940 L380 970" fill="none" stroke="rgba(201,201,201,0.62)" stroke-width="1.5" stroke-linecap="round" stroke-linejoin="round"/>
<polygon points="380,970 376.5,960 383.5,960" fill="rgba(201,201,201,0.8)" stroke="none"/>
<path d="M380 1040 C380 1071.5 210 1078.5 210 1110" fill="none" stroke="rgba(201,201,201,0.62)" stroke-width="1.5" stroke-linecap="round" stroke-linejoin="round"/>
<polygon points="210,1110 206.5,1100 213.5,1100" fill="rgba(201,201,201,0.8)" stroke="none"/>
<path d="M380 1040 C380 1071.5 550 1078.5 550 1110" fill="none" stroke="rgba(201,201,201,0.62)" stroke-width="1.5" stroke-linecap="round" stroke-linejoin="round"/>
<polygon points="550,1110 546.5,1100 553.5,1100" fill="rgba(201,201,201,0.8)" stroke="none"/>
<path d="M210 1180 C210 1200 380 1200 380 1220" fill="none" stroke="rgba(201,201,201,0.62)" stroke-width="1.5" stroke-linecap="round" stroke-linejoin="round"/>
<polygon points="380,1220 376.5,1210 383.5,1210" fill="rgba(201,201,201,0.8)" stroke="none"/>
<path d="M550 1180 C550 1200 380 1200 380 1220" fill="none" stroke="rgba(201,201,201,0.62)" stroke-width="1.5" stroke-linecap="round" stroke-linejoin="round"/>
<polygon points="380,1220 376.5,1210 383.5,1210" fill="rgba(201,201,201,0.8)" stroke="none"/>
<g>
<title>Cognition &amp; consciousness arise from spikes and brain waves acting on each other — → spya-c5z6sr</title>
<ellipse cx="380" cy="65" rx="200" ry="35" fill="rgba(201,201,201,0.16)" stroke="rgba(201,201,201,0.62)" stroke-width="1.2"/>
<text x="380" y="60.5" font-size="15" text-anchor="middle" fill="#f7f7f7">Cognition &amp; consciousness arise from spikes and</text>
<text x="380" y="79.25" font-size="15" text-anchor="middle" fill="#f7f7f7">brain waves acting on each other</text>
</g>
<g>
<title>Classic view: fixed neurons, hard-wired feedforward circuits — → spya-k046f6</title>
<rect x="230" y="150" width="300" height="70" rx="4" fill="rgba(232,112,58,0.16)" stroke="rgba(232,112,58,0.62)" stroke-width="1.2"/>
<text x="380" y="181.4" font-size="12" text-anchor="middle" fill="#f7f7f7">Classic view: fixed neurons, hard-wired</text>
<text x="380" y="196.4" font-size="12" text-anchor="middle" fill="#f7f7f7">feedforward circuits</text>
</g>
<g>
<title>But neurons multitask: mixed selectivity needs flexible routing — → spya-v0gbwq</title>
<rect x="230" y="250" width="300" height="70" rx="4" fill="rgba(232,112,58,0.16)" stroke="rgba(232,112,58,0.62)" stroke-width="1.2"/>
<text x="380" y="281.4" font-size="12" text-anchor="middle" fill="#f7f7f7">But neurons multitask: mixed selectivity</text>
<text x="380" y="296.4" font-size="12" text-anchor="middle" fill="#f7f7f7">needs flexible routing</text>
</g>
<g>
<title>Brain waves organize and route neural information — → spya-jnp59d</title>
<rect x="230" y="390" width="300" height="70" rx="4" fill="rgba(47,191,149,0.16)" stroke="rgba(47,191,149,0.62)" stroke-width="1.2"/>
<text x="380" y="421.4" font-size="12" text-anchor="middle" fill="#f7f7f7">Brain waves organize and route neural</text>
<text x="380" y="436.4" font-size="12" text-anchor="middle" fill="#f7f7f7">information</text>
</g>
<g>
<title>Waves directly steer spikes via ephaptic coupling, no synapse needed — → spya-mapqhv</title>
<polygon points="265,490 495,490 530,525 495,560 265,560 230,525" fill="rgba(47,191,149,0.16)" stroke="rgba(47,191,149,0.62)" stroke-width="1.2"/>
<text x="380" y="521.4" font-size="12" text-anchor="middle" fill="#f7f7f7">Waves directly steer spikes via ephaptic</text>
<text x="380" y="536.4" font-size="12" text-anchor="middle" fill="#f7f7f7">coupling, no synapse needed</text>
</g>
<g>
<title>Alpha/beta waves act as inhibitory “stencils” gating gamma/spiking — → spya-qck2sw</title>
<rect x="230" y="630" width="300" height="70" rx="4" fill="rgba(240,228,66,0.16)" stroke="rgba(240,228,66,0.62)" stroke-width="1.2"/>
<text x="380" y="661.4" font-size="12" text-anchor="middle" fill="#f7f7f7">Alpha/beta waves act as inhibitory “stencils”</text>
<text x="380" y="676.4" font-size="12" text-anchor="middle" fill="#f7f7f7">gating gamma/spiking</text>
</g>
<g>
<title>This explains mixed selectivity and low-dimensional subspace coding — → spya-zmknun</title>
<rect x="230" y="730" width="300" height="70" rx="4" fill="rgba(240,228,66,0.16)" stroke="rgba(240,228,66,0.62)" stroke-width="1.2"/>
<text x="380" y="761.4" font-size="12" text-anchor="middle" fill="#f7f7f7">This explains mixed selectivity and</text>
<text x="380" y="776.4" font-size="12" text-anchor="middle" fill="#f7f7f7">low-dimensional subspace coding</text>
</g>
<g>
<title>Traveling waves drive shifts between neural coding states — → spya-y09vju</title>
<rect x="230" y="870" width="300" height="70" rx="4" fill="rgba(92,143,232,0.16)" stroke="rgba(92,143,232,0.62)" stroke-width="1.2"/>
<text x="380" y="901.4" font-size="12" text-anchor="middle" fill="#f7f7f7">Traveling waves drive shifts between neural</text>
<text x="380" y="916.4" font-size="12" text-anchor="middle" fill="#f7f7f7">coding states</text>
</g>
<g>
<title>Wave interference is efficient, parallel analog computation — → spya-h5qjz4</title>
<polygon points="265,970 495,970 530,1005 495,1040 265,1040 230,1005" fill="rgba(92,143,232,0.16)" stroke="rgba(92,143,232,0.62)" stroke-width="1.2"/>
<text x="380" y="1001.4" font-size="12" text-anchor="middle" fill="#f7f7f7">Wave interference is efficient, parallel</text>
<text x="380" y="1016.4" font-size="12" text-anchor="middle" fill="#f7f7f7">analog computation</text>
</g>
<g>
<title>Anesthetics of all kinds converge on slow, fragmented waves — → spya-uvev07</title>
<rect x="60" y="1110" width="300" height="70" rx="4" fill="rgba(222,143,188,0.16)" stroke="rgba(222,143,188,0.62)" stroke-width="1.2"/>
<text x="210" y="1141.4" font-size="12" text-anchor="middle" fill="#f7f7f7">Anesthetics of all kinds converge on slow,</text>
<text x="210" y="1156.4" font-size="12" text-anchor="middle" fill="#f7f7f7">fragmented waves</text>
</g>
<g>
<title>Hybrid model: synapses store, waves select what's active now — → spya-dnv2tp</title>
<rect x="400" y="1110" width="300" height="70" rx="4" fill="rgba(222,143,188,0.16)" stroke="rgba(222,143,188,0.62)" stroke-width="1.2"/>
<text x="550" y="1141.4" font-size="12" text-anchor="middle" fill="#f7f7f7">Hybrid model: synapses store, waves select</text>
<text x="550" y="1156.4" font-size="12" text-anchor="middle" fill="#f7f7f7">what's active now</text>
</g>
<g>
<title>Cortex exploits its own wave physics as a built-in computer — → spya-smkrcs</title>
<ellipse cx="380" cy="1250" rx="200" ry="30" fill="rgba(222,143,188,0.16)" stroke="rgba(222,143,188,0.62)" stroke-width="1.2"/>
<text x="380" y="1245.5" font-size="15" text-anchor="middle" fill="#f7f7f7">Cortex exploits its own wave physics as a</text>
<text x="380" y="1264.25" font-size="15" text-anchor="middle" fill="#f7f7f7">built-in computer</text>
</g>
<text x="50" y="135" font-size="11" text-anchor="start" fill="rgba(232,112,58,0.95)" font-weight="500" letter-spacing="0.07em">THE CLASSICAL MODEL FAILS</text>
<text x="50" y="375" font-size="11" text-anchor="start" fill="rgba(47,191,149,0.95)" font-weight="500" letter-spacing="0.07em">OSCILLATIONS AS THE FIX</text>
<text x="50" y="1095" font-size="11" text-anchor="start" fill="rgba(222,143,188,0.95)" font-weight="500" letter-spacing="0.07em">CONSCIOUSNESS &amp; SYNTHESIS</text></g>
</g>
<g transform="translate(0 1521.6499999999999)">
<line x1="16" y1="-14" x2="744" y2="-14" stroke="#3f3f3f"/>
<text x="16" y="14" font-size="15" fill="#f7f7f7" font-weight="600">Spatial Computing theory</text>
<text x="16" y="31" font-size="11.5" fill="#b8b8b8">One central mechanism—alpha/beta stencils gating gamma spiking—branches out to explain three separate puzzles: why</text>
<text x="16" y="45.95" font-size="11.5" fill="#b8b8b8">alpha/beta is the right frequency, why neurons seem to multitask, and why populations settle into low-dimensional</text>
<text x="16" y="60.900000000000006" font-size="11.5" fill="#b8b8b8">patterns.</text>
<text x="744" y="14" font-size="10" fill="#8f8f8f" text-anchor="end" letter-spacing="0.06em">INSIDE-SPATIAL</text>
<g transform="translate(0 80.85)"><path d="M380 120 C380 156 140 164 140 200" fill="none" stroke="rgba(201,201,201,0.62)" stroke-width="1.5" stroke-linecap="round" stroke-linejoin="round"/>
<polygon points="140,200 136.5,190 143.5,190" fill="rgba(201,201,201,0.8)" stroke="none"/>
<path d="M380 120 C380 156 380 164 380 200" fill="none" stroke="rgba(201,201,201,0.62)" stroke-width="1.5" stroke-linecap="round" stroke-linejoin="round"/>
<polygon points="380,200 376.5,190 383.5,190" fill="rgba(201,201,201,0.8)" stroke="none"/>
<path d="M380 120 C380 156 620 164 620 200" fill="none" stroke="rgba(201,201,201,0.62)" stroke-width="1.5" stroke-linecap="round" stroke-linejoin="round"/>
<polygon points="620,200 616.5,190 623.5,190" fill="rgba(201,201,201,0.8)" stroke="none"/>
<path d="M380 290 L380 350" fill="none" stroke="rgba(201,201,201,0.62)" stroke-width="1.5" stroke-linecap="round" stroke-linejoin="round" stroke-dasharray="6 4"/>
<path d="M620 290 L380 350" fill="none" stroke="rgba(201,201,201,0.62)" stroke-width="1.5" stroke-linecap="round" stroke-linejoin="round" stroke-dasharray="6 4"/>
<path d="M140 290 C140 317 380 323 380 350" fill="none" stroke="rgba(201,201,201,0.62)" stroke-width="1.5" stroke-linecap="round" stroke-linejoin="round" stroke-dasharray="6 4"/>
<g>
<title>Alpha/beta patterns act as top-down “stencils” suppressing gamma/spiking — → spya-qck2sw</title>
<ellipse cx="380" cy="80" rx="150" ry="40" fill="rgba(201,201,201,0.16)" stroke="rgba(201,201,201,0.62)" stroke-width="1.2"/>
<text x="380" y="66.125" font-size="15" text-anchor="middle" fill="#f7f7f7">Alpha/beta patterns act as top-down</text>
<text x="380" y="84.875" font-size="15" text-anchor="middle" fill="#f7f7f7">“stencils” suppressing</text>
<text x="380" y="103.625" font-size="15" text-anchor="middle" fill="#f7f7f7">gamma/spiking</text>
</g>
<g>
<title>Alpha/beta's medium frequency fits a control role; confirmed in primate PFC — → spya-azz3c8</title>
<rect x="40" y="200" width="200" height="90" rx="4" fill="rgba(201,201,201,0.16)" stroke="rgba(201,201,201,0.62)" stroke-width="1.2"/>
<text x="140" y="233.9" font-size="12" text-anchor="middle" fill="#f7f7f7">Alpha/beta's medium frequency</text>
<text x="140" y="248.9" font-size="12" text-anchor="middle" fill="#f7f7f7">fits a control role;</text>
<text x="140" y="263.9" font-size="12" text-anchor="middle" fill="#f7f7f7">confirmed in primate PFC</text>
</g>
<g>
<title>Shifting stencils make the same neuron look differently tuned in different contexts — → spya-zmknun</title>
<rect x="280" y="200" width="200" height="90" rx="4" fill="rgba(201,201,201,0.16)" stroke="rgba(201,201,201,0.62)" stroke-width="1.2"/>
<text x="380" y="233.9" font-size="12" text-anchor="middle" fill="#f7f7f7">Shifting stencils make the</text>
<text x="380" y="248.9" font-size="12" text-anchor="middle" fill="#f7f7f7">same neuron look differently</text>
<text x="380" y="263.9" font-size="12" text-anchor="middle" fill="#f7f7f7">tuned in different contexts</text>
</g>
<g>
<title>Stencils sort spiking into separate, low-dimensional activity patterns — → spya-m63zb9</title>
<rect x="520" y="200" width="200" height="90" rx="4" fill="rgba(201,201,201,0.16)" stroke="rgba(201,201,201,0.62)" stroke-width="1.2"/>
<text x="620" y="233.9" font-size="12" text-anchor="middle" fill="#f7f7f7">Stencils sort spiking into</text>
<text x="620" y="248.9" font-size="12" text-anchor="middle" fill="#f7f7f7">separate, low-dimensional</text>
<text x="620" y="263.9" font-size="12" text-anchor="middle" fill="#f7f7f7">activity patterns</text>
</g>
<g>
<title>Together: one gating mechanism, several explanatory payoffs</title>
<path d="M280 350 L466 350 L480 364 L480 420 L280 420 Z" fill="rgba(201,201,201,0.09)" stroke="rgba(201,201,201,0.62)" stroke-width="1.2" stroke-dasharray="3 3"/>
<path d="M466 350 L466 364 L480 364" fill="none" stroke="rgba(201,201,201,0.5)" stroke-width="1"/>
<text x="380" y="373.9" font-size="12" text-anchor="middle" fill="#f7f7f7">Together: one gating</text>
<text x="380" y="388.9" font-size="12" text-anchor="middle" fill="#f7f7f7">mechanism, several</text>
<text x="380" y="403.9" font-size="12" text-anchor="middle" fill="#f7f7f7">explanatory payoffs</text>
</g></g>
</g>
<g transform="translate(0 2250.5)">
<line x1="16" y1="-14" x2="744" y2="-14" stroke="#3f3f3f"/>
<text x="16" y="14" font-size="15" fill="#f7f7f7" font-weight="600">Waves as computation</text>
<text x="16" y="31" font-size="11.5" fill="#b8b8b8">A chain: evidence that moving waves accompany changes in neural coding, leading to a general claim about analog</text>
<text x="16" y="45.95" font-size="11.5" fill="#b8b8b8">computation, and ending with a concrete worked example of waves computing with cortex's own physics.</text>
<text x="744" y="14" font-size="10" fill="#8f8f8f" text-anchor="end" letter-spacing="0.06em">INSIDE-WAVES</text>
<g transform="translate(0 65.9)"><path d="M380 120 L380 150" fill="none" stroke="rgba(201,201,201,0.62)" stroke-width="1.5" stroke-linecap="round" stroke-linejoin="round"/>
<polygon points="380,150 376.5,140 383.5,140" fill="rgba(201,201,201,0.8)" stroke="none"/>
<path d="M380 220 L380 250" fill="none" stroke="rgba(201,201,201,0.62)" stroke-width="1.5" stroke-linecap="round" stroke-linejoin="round"/>
<polygon points="380,250 376.5,240 383.5,240" fill="rgba(201,201,201,0.8)" stroke="none"/>
<path d="M380 320 L380 360" fill="none" stroke="rgba(201,201,201,0.62)" stroke-width="1.5" stroke-linecap="round" stroke-linejoin="round"/>
<polygon points="380,360 376.5,350 383.5,350" fill="rgba(201,201,201,0.8)" stroke="none"/>
<path d="M380 430 L380 470" fill="none" stroke="rgba(201,201,201,0.62)" stroke-width="1.5" stroke-linecap="round" stroke-linejoin="round"/>
<polygon points="380,470 376.5,460 383.5,460" fill="rgba(201,201,201,0.8)" stroke="none"/>
<path d="M380 540 L380 580" fill="none" stroke="rgba(201,201,201,0.62)" stroke-width="1.5" stroke-linecap="round" stroke-linejoin="round"/>
<polygon points="380,580 376.5,570 383.5,570" fill="rgba(201,201,201,0.8)" stroke="none"/>
<g>
<title>Beta traveling waves appear exactly when motor/PFC coding states shift — → spya-qr9ra4</title>
<rect x="230" y="40" width="300" height="80" rx="4" fill="rgba(201,201,201,0.16)" stroke="rgba(201,201,201,0.62)" stroke-width="1.2"/>
<text x="380" y="76.4" font-size="12" text-anchor="middle" fill="#f7f7f7">Beta traveling waves appear exactly when</text>
<text x="380" y="91.4" font-size="12" text-anchor="middle" fill="#f7f7f7">motor/PFC coding states shift</text>
</g>
<g>
<title>Proposal: traveling alpha/beta waves transition activity between coding subspaces — → spya-mrsvfu</title>
<rect x="230" y="150" width="300" height="70" rx="4" fill="rgba(201,201,201,0.16)" stroke="rgba(201,201,201,0.62)" stroke-width="1.2"/>
<text x="380" y="181.4" font-size="12" text-anchor="middle" fill="#f7f7f7">Proposal: traveling alpha/beta waves</text>
<text x="380" y="196.4" font-size="12" text-anchor="middle" fill="#f7f7f7">transition activity between coding subspaces</text>
</g>
<g>
<title>Slower theta waves organize activity at an even larger scale — → spya-jcpyd5</title>
<rect x="230" y="250" width="300" height="70" rx="4" fill="rgba(201,201,201,0.16)" stroke="rgba(201,201,201,0.62)" stroke-width="1.2"/>
<text x="380" y="281.4" font-size="12" text-anchor="middle" fill="#f7f7f7">Slower theta waves organize activity at an</text>
<text x="380" y="296.4" font-size="12" text-anchor="middle" fill="#f7f7f7">even larger scale</text>
</g>
<g>
<title>Analog computing: continuous wave interference solves equations directly — → spya-vp5h33</title>
<polygon points="265,360 495,360 530,395 495,430 265,430 230,395" fill="rgba(201,201,201,0.16)" stroke="rgba(201,201,201,0.62)" stroke-width="1.2"/>
<text x="380" y="391.4" font-size="12" text-anchor="middle" fill="#f7f7f7">Analog computing: continuous wave</text>
<text x="380" y="406.4" font-size="12" text-anchor="middle" fill="#f7f7f7">interference solves equations directly</text>
</g>
<g>
<title>This is inherently parallel and far more energy-efficient than digital steps — → spya-mgnqxk</title>
<rect x="230" y="470" width="300" height="70" rx="4" fill="rgba(201,201,201,0.16)" stroke="rgba(201,201,201,0.62)" stroke-width="1.2"/>
<text x="380" y="501.4" font-size="12" text-anchor="middle" fill="#f7f7f7">This is inherently parallel and far more</text>
<text x="380" y="516.4" font-size="12" text-anchor="middle" fill="#f7f7f7">energy-efficient than digital steps</text>
</g>
<g>
<title>Cortex's overlapping waves could literally compute intersections of context — → spya-prykb8</title>
<rect x="230" y="580" width="300" height="70" rx="4" fill="rgba(201,201,201,0.16)" stroke="rgba(201,201,201,0.62)" stroke-width="1.2"/>
<text x="380" y="611.4" font-size="12" text-anchor="middle" fill="#f7f7f7">Cortex's overlapping waves could literally</text>
<text x="380" y="626.4" font-size="12" text-anchor="middle" fill="#f7f7f7">compute intersections of context</text>
</g></g>
</g>
</svg>