<svg xmlns="http://www.w3.org/2000/svg" viewBox="0 0 760 1236.85" width="760" height="1236.85">
<style>text { font-family: "Geist", "Helvetica Neue", Arial, sans-serif; }</style>
<rect x="0" y="0" width="760" height="1236.85" fill="#252525"/>
<text x="16" y="24" font-size="17" fill="#f7f7f7" font-weight="600">Overview</text><text x="16" y="42" font-size="11.5" fill="#b8b8b8">The essay funnels psychological biases into 'pareidolia', funnels four technical arguments into 'functionalism looks</text>
<text x="16" y="56.95" font-size="11.5" fill="#b8b8b8">shaky', forks the resulting uncertainty into two live ethical risks, then loops back to the human question it opened</text>
<text x="16" y="71.9" font-size="11.5" fill="#b8b8b8">with.</text>
<g transform="translate(0 86.85)">
<rect x="24" y="150" width="712" height="180" rx="8" fill="rgba(232,112,58,0.07)" stroke="rgba(232,112,58,0.24)" stroke-width="1"/>
<rect x="24" y="470" width="712" height="170" rx="8" fill="rgba(47,191,149,0.07)" stroke="rgba(47,191,149,0.24)" stroke-width="1"/>
<path d="M145 270 C145 306 380 314 380 350" fill="none" stroke="rgba(201,201,201,0.62)" stroke-width="1.5" stroke-linecap="round" stroke-linejoin="round"/>
<polygon points="380,350 376.5,340 383.5,340" fill="rgba(201,201,201,0.8)" stroke="none"/>
<path d="M380 270 C380 306 380 314 380 350" fill="none" stroke="rgba(201,201,201,0.62)" stroke-width="1.5" stroke-linecap="round" stroke-linejoin="round"/>
<polygon points="380,350 376.5,340 383.5,340" fill="rgba(201,201,201,0.8)" stroke="none"/>
<path d="M615 270 C615 306 380 314 380 350" fill="none" stroke="rgba(201,201,201,0.62)" stroke-width="1.5" stroke-linecap="round" stroke-linejoin="round"/>
<polygon points="380,350 376.5,340 383.5,340" fill="rgba(201,201,201,0.8)" stroke="none"/>
<path d="M380 420 C380 460.5 289 469.5 289 510" fill="none" stroke="rgba(201,201,201,0.62)" stroke-width="1.5" stroke-linecap="round" stroke-linejoin="round" stroke-dasharray="6 4"/>
<polygon points="289,510 285.5,500 292.5,500" fill="rgba(201,201,201,0.8)" stroke="none"/>
<path d="M109 600 C109 631.5 380 638.5 380 670" fill="none" stroke="rgba(201,201,201,0.62)" stroke-width="1.5" stroke-linecap="round" stroke-linejoin="round"/>
<polygon points="380,670 376.5,660 383.5,660" fill="rgba(201,201,201,0.8)" stroke="none"/>
<path d="M289 600 C289 631.5 380 638.5 380 670" fill="none" stroke="rgba(201,201,201,0.62)" stroke-width="1.5" stroke-linecap="round" stroke-linejoin="round"/>
<polygon points="380,670 376.5,660 383.5,660" fill="rgba(201,201,201,0.8)" stroke="none"/>
<path d="M469 600 C469 631.5 380 638.5 380 670" fill="none" stroke="rgba(201,201,201,0.62)" stroke-width="1.5" stroke-linecap="round" stroke-linejoin="round"/>
<polygon points="380,670 376.5,660 383.5,660" fill="rgba(201,201,201,0.8)" stroke="none"/>
<path d="M649 600 C649 631.5 380 638.5 380 670" fill="none" stroke="rgba(201,201,201,0.62)" stroke-width="1.5" stroke-linecap="round" stroke-linejoin="round"/>
<polygon points="380,670 376.5,660 383.5,660" fill="rgba(201,201,201,0.8)" stroke="none"/>
<path d="M380 740 L380 780" fill="none" stroke="rgba(201,201,201,0.62)" stroke-width="1.5" stroke-linecap="round" stroke-linejoin="round"/>
<polygon points="380,780 376.5,770 383.5,770" fill="rgba(201,201,201,0.8)" stroke="none"/>
<path d="M380 850 C380 870 205 870 205 890" fill="none" stroke="rgba(201,201,201,0.62)" stroke-width="1.5" stroke-linecap="round" stroke-linejoin="round"/>
<polygon points="205,890 201.5,880 208.5,880" fill="rgba(201,201,201,0.8)" stroke="none"/>
<path d="M380 850 C380 870 555 870 555 890" fill="none" stroke="rgba(201,201,201,0.62)" stroke-width="1.5" stroke-linecap="round" stroke-linejoin="round"/>
<polygon points="555,890 551.5,880 558.5,880" fill="rgba(201,201,201,0.8)" stroke="none"/>
<path d="M205 980 C205 1000 380 990 380 1010" fill="none" stroke="rgba(201,201,201,0.62)" stroke-width="1.5" stroke-linecap="round" stroke-linejoin="round"/>
<polygon points="380,1010 376.5,1000 383.5,1000" fill="rgba(201,201,201,0.8)" stroke="none"/>
<path d="M555 980 C555 1000 380 990 380 1010" fill="none" stroke="rgba(201,201,201,0.62)" stroke-width="1.5" stroke-linecap="round" stroke-linejoin="round"/>
<polygon points="380,1010 376.5,1000 383.5,1000" fill="rgba(201,201,201,0.8)" stroke="none"/>
<path d="M530 1050 C752 1050 752 75 530 75" fill="none" stroke="rgba(201,201,201,0.62)" stroke-width="1.5" stroke-linecap="round" stroke-linejoin="round" stroke-dasharray="6 4"/>
<polygon points="530,75 540,71.5 540,78.5" fill="rgba(201,201,201,0.8)" stroke="none"/>
<g>
<title>Does AI consciousness matter? — With consciousness comes moral status, rights, and the risk of suffering — for AI and for us.</title>
<ellipse cx="380" cy="75" rx="150" ry="35" fill="rgba(201,201,201,0.16)" stroke="rgba(201,201,201,0.62)" stroke-width="1.2"/>
<text x="380" y="79.875" font-size="15" text-anchor="middle" fill="#f7f7f7">Does AI consciousness matter?</text>
</g>
<g>
<title>Human-centered biases — anthropocentrism, exceptionalism, anthropomorphism — Three overlapping biases make us project mind onto anything humanlike.</title>
<rect x="40" y="190" width="210" height="80" rx="4" fill="rgba(232,112,58,0.16)" stroke="rgba(232,112,58,0.62)" stroke-width="1.2"/>
<text x="145" y="227.972" font-size="12" text-anchor="middle" fill="#f7f7f7">Human-centered biases</text>
<text x="145" y="244.34" font-size="9.120000000000001" text-anchor="middle" fill="#8f8f8f">anthropocentrism, exceptionalism…</text>
</g>
<g>
<title>Fluent language feels human — Saying chatbots 'hallucinate' quietly implies they experience things.</title>
<rect x="275" y="190" width="210" height="80" rx="4" fill="rgba(232,112,58,0.16)" stroke="rgba(232,112,58,0.62)" stroke-width="1.2"/>
<text x="380" y="233.9" font-size="12" text-anchor="middle" fill="#f7f7f7">Fluent language feels human</text>
</g>
<g>
<title>Techno-hype &amp; rapture dreams — Exponential growth and Promethean ambition make imminent machine minds feel inevitable.</title>
<rect x="510" y="190" width="210" height="80" rx="4" fill="rgba(232,112,58,0.16)" stroke="rgba(232,112,58,0.62)" stroke-width="1.2"/>
<text x="615" y="233.9" font-size="12" text-anchor="middle" fill="#f7f7f7">Techno-hype &amp; rapture dreams</text>
</g>
<g>
<title>Pareidolia, not evidence — Seeing consciousness in AI may be like seeing a face in a cinnamon bun.</title>
<polygon points="265,350 495,350 530,385 495,420 265,420 230,385" fill="rgba(232,112,58,0.16)" stroke="rgba(232,112,58,0.62)" stroke-width="1.2"/>
<text x="380" y="389.875" font-size="15" text-anchor="middle" fill="#f7f7f7">Pareidolia, not evidence</text>
</g>
<g>
<title>Brains aren't computers — No clean software/hardware split exists in living neural tissue.</title>
<rect x="34" y="510" width="150" height="90" rx="4" fill="rgba(47,191,149,0.16)" stroke="rgba(47,191,149,0.62)" stroke-width="1.2"/>
<text x="109" y="551.4" font-size="12" text-anchor="middle" fill="#f7f7f7">Brains aren't</text>
<text x="109" y="566.4" font-size="12" text-anchor="middle" fill="#f7f7f7">computers</text>
</g>
<g>
<title>More than algorithms — Analogue, continuous, dynamical processes may matter beyond Turing computation.</title>
<rect x="214" y="510" width="150" height="90" rx="4" fill="rgba(47,191,149,0.16)" stroke="rgba(47,191,149,0.62)" stroke-width="1.2"/>
<text x="289" y="558.9" font-size="12" text-anchor="middle" fill="#f7f7f7">More than algorithms</text>
</g>
<g>
<title>Life may be necessary — Consciousness may be tied to self-sustaining, living, metabolic processes.</title>
<rect x="394" y="510" width="150" height="90" rx="4" fill="rgba(47,191,149,0.16)" stroke="rgba(47,191,149,0.62)" stroke-width="1.2"/>
<text x="469" y="558.9" font-size="12" text-anchor="middle" fill="#f7f7f7">Life may be necessary</text>
</g>
<g>
<title>Simulating ≠ creating — A simulated storm doesn't get anything wet; a simulated brain may not feel.</title>
<rect x="574" y="510" width="150" height="90" rx="4" fill="rgba(47,191,149,0.16)" stroke="rgba(47,191,149,0.62)" stroke-width="1.2"/>
<text x="649" y="558.9" font-size="12" text-anchor="middle" fill="#f7f7f7">Simulating ≠ creating</text>
</g>
<g>
<title>Functionalism looks shaky — Four independent arguments converge, though none is a knock-down proof.</title>
<polygon points="265,670 495,670 530,705 495,740 265,740 230,705" fill="rgba(47,191,149,0.16)" stroke="rgba(47,191,149,0.62)" stroke-width="1.2"/>
<text x="380" y="709.875" font-size="15" text-anchor="middle" fill="#f7f7f7">Functionalism looks shaky</text>
</g>
<g>
<title>Deep uncertainty remains — No one can say for sure what would create, or avoid, real machine consciousness.</title>
<path d="M230 780 L516 780 L530 794 L530 850 L230 850 Z" fill="rgba(240,228,66,0.09)" stroke="rgba(240,228,66,0.62)" stroke-width="1.2" stroke-dasharray="3 3"/>
<path d="M516 780 L516 794 L530 794" fill="none" stroke="rgba(240,228,66,0.5)" stroke-width="1"/>
<text x="380" y="818.9" font-size="12" text-anchor="middle" fill="#f7f7f7">Deep uncertainty remains</text>
</g>
<g>
<title>Don't deliberately create conscious AI — Doing so risks introducing new moral subjects and new suffering at scale.</title>
<rect x="60" y="890" width="290" height="90" rx="4" fill="rgba(240,228,66,0.16)" stroke="rgba(240,228,66,0.62)" stroke-width="1.2"/>
<text x="205" y="938.9" font-size="12" text-anchor="middle" fill="#f7f7f7">Don't deliberately create conscious AI</text>
</g>
<g>
<title>Conscious-seeming AI is already here — Illusory consciousness poses its own distinct, present-day ethical risks.</title>
<rect x="410" y="890" width="290" height="90" rx="4" fill="rgba(240,228,66,0.16)" stroke="rgba(240,228,66,0.62)" stroke-width="1.2"/>
<text x="555" y="938.9" font-size="12" text-anchor="middle" fill="#f7f7f7">Conscious-seeming AI is already here</text>
</g>
<g>
<title>Recovering an embodied sense of self — More breath than thought, more meat than machine — a return to what makes us us.</title>
<ellipse cx="380" cy="1050" rx="150" ry="40" fill="rgba(201,201,201,0.16)" stroke="rgba(201,201,201,0.62)" stroke-width="1.2"/>
<text x="380" y="1054.875" font-size="15" text-anchor="middle" fill="#f7f7f7">Recovering an embodied sense of self</text>
</g>
<text x="34" y="165" font-size="11" text-anchor="start" fill="rgba(232,112,58,0.95)" font-weight="500" letter-spacing="0.07em">WHY WE'RE TEMPTED TO SEE IT</text>
<text x="34" y="485" font-size="11" text-anchor="start" fill="rgba(47,191,149,0.95)" font-weight="500" letter-spacing="0.07em">WHY IT'S PROBABLY NOT THERE</text>
<rect x="293.4" y="451" width="82.2" height="14" rx="3" fill="#252525" stroke="none"/>
<text x="334.5" y="461" font-size="10" text-anchor="middle" fill="#8f8f8f">digging deeper</text>
<rect x="626.0999999999999" y="664.5016000000003" width="129.9" height="14" rx="3" fill="#252525" stroke="none"/>
<text x="691.05" y="674.5016000000003" font-size="10" text-anchor="middle" fill="#8f8f8f">returns to human nature</text>
</g>
</svg>