<svg xmlns="http://www.w3.org/2000/svg" viewBox="0 0 760 1231.9" width="760" height="1231.9">
<style>text { font-family: "Geist", "Helvetica Neue", Arial, sans-serif; }</style>
<rect x="0" y="0" width="760" height="1231.9" fill="#252525"/>
<text x="16" y="24" font-size="17" fill="#f7f7f7" font-weight="600">The Scaling Hypothesis</text><text x="16" y="42" font-size="11.5" fill="#b8b8b8">GPT-3's results build a case for scale, which is explained, then tested against who will actually act on it and</text>
<text x="16" y="56.95" font-size="11.5" fill="#b8b8b8">vindicated by a decade of wrong predictions — before the same logic is turned on agency itself.</text>
<g transform="translate(0 71.9)">
<rect x="24" y="40" width="712" height="410" rx="8" fill="rgba(232,112,58,0.07)" stroke="rgba(232,112,58,0.24)" stroke-width="1"/>
<text x="34" y="55" font-size="11" text-anchor="start" fill="rgba(232,112,58,0.95)" font-weight="500" letter-spacing="0.07em">THE CASE FOR SCALING</text>
<rect x="24" y="460" width="712" height="280" rx="8" fill="rgba(47,191,149,0.07)" stroke="rgba(47,191,149,0.24)" stroke-width="1"/>
<text x="34" y="475" font-size="11" text-anchor="start" fill="rgba(47,191,149,0.95)" font-weight="500" letter-spacing="0.07em">WHO WILL ACT ON IT</text>
<rect x="24" y="750" width="712" height="290" rx="8" fill="rgba(240,228,66,0.07)" stroke="rgba(240,228,66,0.24)" stroke-width="1"/>
<text x="34" y="765" font-size="11" text-anchor="start" fill="rgba(240,228,66,0.95)" font-weight="500" letter-spacing="0.07em">APPENDIX: DOES AGENCY EMERGE TOO?</text>
<path d="M380 170 L380 200" fill="none" stroke="rgba(201,201,201,0.62)" stroke-width="1.5" stroke-linecap="round" stroke-linejoin="round"/>
<polygon points="380,200 376.5,190 383.5,190" fill="rgba(201,201,201,0.8)" stroke="none"/>
<path d="M380 290 L380 320" fill="none" stroke="rgba(201,201,201,0.62)" stroke-width="1.5" stroke-linecap="round" stroke-linejoin="round"/>
<polygon points="380,320 376.5,310 383.5,310" fill="rgba(201,201,201,0.8)" stroke="none"/>
<path d="M380 410 L380 510" fill="none" stroke="rgba(201,201,201,0.62)" stroke-width="1.5" stroke-linecap="round" stroke-linejoin="round"/>
<polygon points="380,510 376.5,500 383.5,500" fill="rgba(201,201,201,0.8)" stroke="none"/>
<path d="M380 600 L380 630" fill="none" stroke="rgba(201,201,201,0.62)" stroke-width="1.5" stroke-linecap="round" stroke-linejoin="round"/>
<polygon points="380,630 376.5,620 383.5,620" fill="rgba(201,201,201,0.8)" stroke="none"/>
<path d="M380 720 L380 800" fill="none" stroke="rgba(201,201,201,0.62)" stroke-width="1.5" stroke-linecap="round" stroke-linejoin="round"/>
<polygon points="380,800 376.5,790 383.5,790" fill="rgba(201,201,201,0.8)" stroke="none"/>
<path d="M380 890 L380 920" fill="none" stroke="rgba(201,201,201,0.62)" stroke-width="1.5" stroke-linecap="round" stroke-linejoin="round"/>
<polygon points="380,920 376.5,910 383.5,910" fill="rgba(201,201,201,0.8)" stroke="none"/>
<path d="M230 675 C75.20000000000002 675 75.20000000000002 245 230 245" fill="none" stroke="rgba(201,201,201,0.62)" stroke-width="1.5" stroke-linecap="round" stroke-linejoin="round" stroke-dasharray="6 4"/>
<polygon points="230,245 220,248.5 220,241.5" fill="rgba(201,201,201,0.8)" stroke="none"/>
<g>
<title>GPT-3 arrives — 175B params, meta-learning appears — A straightforward scale-up of GPT-2 unexpectedly learns to learn from examples alone.</title>
<ellipse cx="380" cy="125" rx="150" ry="45" fill="rgba(232,112,58,0.16)" stroke="rgba(232,112,58,0.62)" stroke-width="1.2"/>
<text x="380" y="122.465" font-size="15" text-anchor="middle" fill="#f7f7f7">GPT-3 arrives</text>
<text x="380" y="142.925" font-size="11.4" text-anchor="middle" fill="#8f8f8f">175B params, meta-learning appears</text>
</g>
<g>
<title>Scale alone breeds intelligence — the blessings of scale, generalized — Across vision, games, robotics, and language, bigger models+data+compute reliably yield generalization and meta-learning.</title>
<rect x="230" y="200" width="300" height="90" rx="4" fill="rgba(232,112,58,0.16)" stroke="rgba(232,112,58,0.62)" stroke-width="1.2"/>
<text x="380" y="242.465" font-size="15" text-anchor="middle" fill="#f7f7f7">Scale alone breeds intelligence</text>
<text x="380" y="262.925" font-size="11.4" text-anchor="middle" fill="#8f8f8f">the blessings of scale, generalized</text>
</g>
<g>
<title>Why pretraining works — loss reduction tracks understanding — Minimizing next-token loss forces a model from letter statistics toward genuine world-modeling.</title>
<polygon points="275,320 485,320 530,365 485,410 275,410 230,365" fill="rgba(232,112,58,0.16)" stroke="rgba(232,112,58,0.62)" stroke-width="1.2"/>
<text x="380" y="362.465" font-size="15" text-anchor="middle" fill="#f7f7f7">Why pretraining works</text>
<text x="380" y="382.92499999999995" font-size="11.4" text-anchor="middle" fill="#8f8f8f">loss reduction tracks understanding</text>
</g>
<g>
<title>Will anyone scale further? — hardware is ready; will is not — DeepMind and Google Brain have the compute but not the conviction to bet everything on scale.</title>
<polygon points="380,510 530,555 380,600 230,555" fill="rgba(47,191,149,0.16)" stroke="rgba(47,191,149,0.62)" stroke-width="1.2"/>
<text x="380" y="552.465" font-size="15" text-anchor="middle" fill="#f7f7f7">Will anyone scale further?</text>
<text x="380" y="572.9250000000001" font-size="11.4" text-anchor="middle" fill="#8f8f8f">hardware is ready; will is not</text>
</g>
<g>
<title>Critics keep being wrong — a decade of failed predictions — Confident 'AI winter' forecasts from respected experts were repeatedly falsified by events.</title>
<rect x="230" y="630" width="300" height="90" rx="4" fill="rgba(47,191,149,0.16)" stroke="rgba(47,191,149,0.62)" stroke-width="1.2"/>
<text x="380" y="672.465" font-size="15" text-anchor="middle" fill="#f7f7f7">Critics keep being wrong</text>
<text x="380" y="692.9250000000001" font-size="11.4" text-anchor="middle" fill="#8f8f8f">a decade of failed predictions</text>
</g>
<g>
<title>Agency leaks in from data — GPT-3 learns to roleplay agents — Training on human-generated text inevitably teaches a model to imitate goal-pursuing agents.</title>
<rect x="230" y="800" width="300" height="90" rx="4" fill="rgba(240,228,66,0.16)" stroke="rgba(240,228,66,0.62)" stroke-width="1.2"/>
<text x="380" y="842.465" font-size="15" text-anchor="middle" fill="#f7f7f7">Agency leaks in from data</text>
<text x="380" y="862.9250000000001" font-size="11.4" text-anchor="middle" fill="#8f8f8f">GPT-3 learns to roleplay agents</text>
</g>
<g>
<title>Even formal systems tempt it — cellular automata, Turing machines — Agency-like inference appears even when training on abstract rule systems with no agents at all.</title>
<rect x="230" y="920" width="300" height="90" rx="4" fill="rgba(240,228,66,0.16)" stroke="rgba(240,228,66,0.62)" stroke-width="1.2"/>
<text x="380" y="962.465" font-size="15" text-anchor="middle" fill="#f7f7f7">Even formal systems tempt it</text>
<text x="380" y="982.9250000000001" font-size="11.4" text-anchor="middle" fill="#8f8f8f">cellular automata, Turing machines</text>
</g>
<g>
<title>Backlinks, related pages, bibliography</title>
<path d="M230 1070 L516 1070 L530 1084 L530 1120 L230 1120 Z" fill="rgba(201,201,201,0.09)" stroke="rgba(201,201,201,0.62)" stroke-width="1.2" stroke-dasharray="3 3"/>
<path d="M516 1070 L516 1084 L530 1084" fill="none" stroke="rgba(201,201,201,0.5)" stroke-width="1"/>
<text x="380" y="1098.25" font-size="10" text-anchor="middle" fill="#f7f7f7">Backlinks, related pages, bibliography</text>
</g>
<rect x="83.4" y="446" width="61" height="14" rx="3" fill="#252525" stroke="none"/>
<text x="113.9" y="456" font-size="10" text-anchor="middle" fill="#8f8f8f">vindicates</text>
</g>
</svg>